<svg width="22" height="22" viewBox="0 0 22 22" fill="none" xmlns="http://www.w3.org/2000/svg">
<circle cx="11" cy="11" r="11" fill="#4F4F4F"/>
<path d="M15.9333 7.89333L14.1066 6.06666C13.8682 5.84273 13.5558 5.71424 13.2288 5.70563C12.9019 5.69703 12.5831 5.80891 12.3333 6.02L6.33329 12.02C6.1178 12.2373 5.98362 12.5221 5.95329 12.8267L5.66662 15.6067C5.65764 15.7043 5.67031 15.8027 5.70373 15.8949C5.73715 15.9871 5.79049 16.0708 5.85995 16.14C5.92225 16.2018 5.99612 16.2507 6.07735 16.2838C6.15857 16.317 6.24555 16.3338 6.33329 16.3333H6.39329L9.17329 16.08C9.47782 16.0497 9.76264 15.9155 9.97995 15.7L15.98 9.7C16.2128 9.45397 16.3387 9.12567 16.3299 8.78702C16.3212 8.44837 16.1786 8.127 15.9333 7.89333ZM13.6666 10.12L11.88 8.33333L13.18 7L15 8.82L13.6666 10.12Z" fill="white"/>
</svg>
